<svg width="1000" height="1000" viewBox="0 0 1000 1000" fill="none" xmlns="http://www.w3.org/2000/svg">
<rect width="1000" height="1000" fill="#130516"/>
<path d="M875.556 251.676C784.84 313.302 602.804 437.138 600.386 439.478L586.734 528.602L730.56 643.858L710.376 567.8L842.306 601.734L741.286 528.602L913 381.265L737.678 419.879L875.556 251.676Z" fill="#A448A0"/>
<path d="M177.586 690.955C242.82 659.687 373.891 596.761 376.31 595.201L383.915 739.027L306.883 850.48L335.453 731.811L229.071 850.48L287.771 734.054L160.034 795.485L211.519 744L298.497 672.721L177.586 690.955Z" fill="white"/>
<path d="M388.596 522.362L430.135 513.196C440.731 517.746 462.527 527.198 464.945 528.602C467.364 530.007 484.935 455.341 493.418 417.832L381.185 293.313L157.109 102L261.736 296.921L87 219.596L258.421 417.832L113.913 436.944L279.483 500.715L203.621 590.813L388.596 522.362Z" fill="white"/>
<path d="M399.321 559.902L428.183 511.83C428.638 504.549 429.646 489.598 430.036 488.038C430.426 486.478 431.889 476.792 432.571 472.144C435.334 466.846 440.86 455.938 440.86 454.69C440.86 453.442 451.131 443.574 456.266 438.796L499.365 413.833L515.552 412.078L526.375 413.833L569.474 367.809L480.546 338.166L592.194 320.03L518.282 250.701L606.43 286.487L556.7 159.432L649.042 261.719L664.741 151.339L703.647 286.487L750.646 236.269L722.954 317.104L739.14 361.959L733.289 379.023L802.131 461.905L668.836 403.302L646.506 429.825L630.807 459.468L635.488 467.366C639.388 475.264 647.267 491.236 647.579 491.938C647.891 492.64 648.554 503.477 648.847 508.807L643.679 536.792L629.052 562.632L585.466 605.926L589.659 609.047L593.559 612.167C596.517 614.67 602.627 619.87 603.407 620.65C604.382 621.625 608.673 628.744 608.673 630.401V641.615L611.208 652.048L603.992 666.09L583.418 698.073L578.055 699.34L576.3 704.801L628.662 731.713H637.926C640.363 732.363 645.512 733.78 646.604 734.248C647.696 734.716 650.569 737.434 651.869 738.734L653.625 736.589L661.133 728.885L660.938 721.475L664.448 720.305L680.147 703.241L684.047 698.073L690.483 701.68L702.282 704.216H714.08C720.808 705.776 734.499 709.013 735.435 709.481C736.371 709.949 739.92 715.202 741.578 717.769L747.038 722.45C749.931 727.553 755.873 737.954 756.497 738.734C757.121 739.514 760.657 756.741 762.347 765.256L751.134 750.337L720.516 727.52L728.999 747.412L716.81 736.589L661.133 778.03L645.239 803.87L637.926 815.083L646.604 823.469L658.5 827.467L673.809 824.932L656.745 834.488H643.484L627.785 825.907L622.617 824.932L613.548 820.349L611.793 815.083L620.374 799.97V794.314L628.662 780.858L625.152 778.03L619.496 771.984C618.489 770.132 616.298 766.231 615.596 765.451C614.894 764.671 614.523 760.641 614.426 758.723L556.408 729.47L553.385 731.226L546.462 733.371L536.516 728.593C533.591 726.578 527.467 722.391 526.375 721.767C525.283 721.143 524.035 713.121 523.547 709.189C524.1 704.443 525.205 694.796 525.205 694.172C525.205 693.548 529.495 685.526 531.641 681.594L527.74 678.278C527.285 675.255 526.375 669.073 526.375 668.527C526.375 667.845 531.153 657.021 531.641 656.436C532.031 655.968 536.224 652.601 538.271 650.976L552.118 628.744L550.752 621.528L480.643 648.928L446.028 653.901L415.702 699.828L403.904 708.116V716.307L426.331 761.551V767.304L443.102 774.227L464.164 763.014V758.138L469.625 754.628L495.367 771.107V781.735L500.243 788.659L509.506 795.582L525.888 811.768L528.228 839.753L516.429 861.4L512.041 816.351L500.243 806.308L497.317 828.247L484.641 811.768L443.102 828.247L414.24 863.448L412.777 877.294C413.947 879.602 416.463 884.724 417.165 886.753C417.867 888.781 430.329 894.748 436.472 897.479L405.561 893.676L389.765 870.664L394.348 851.259V841.508L405.561 822.689C405.854 820.121 406.263 814.693 405.561 813.523C404.684 812.061 395.81 804.845 395.81 803.675V786.416L400.101 777.737L376.601 732.006L371.921 735.516L363.047 728.885L361.78 716.307L358.172 708.116L361.78 701.388L353.004 671.745C355.929 654.551 361.78 619.285 361.78 615.775C361.78 612.264 368.735 595.72 372.213 587.887L399.321 559.902Z" fill="white"/>
<path d="M668.056 357.864L663.863 333.682L693.701 360.692L692.433 370.053L685.998 374.928L668.056 367.127V357.864Z" fill="#A448A0"/>
</svg>
