<svg width="1141" height="1099" viewBox="0 0 1141 1099" fill="none" xmlns="http://www.w3.org/2000/svg">
<path d="M1089.28 206.756C963.968 291.883 712.51 462.946 709.17 466.179L690.312 589.29L888.988 748.499L924 690.311H1043.35L1003.5 556.5L1141 385.766L1043.35 356.5L1089.28 206.756Z" fill="#B64EC4"/>
<path d="M125.132 813.558C215.243 770.366 396.3 683.443 399.64 681.288L410.146 879.963L303.737 1033.92L277.5 965L176 945L203 859.5L125.132 813.558Z" fill="#0B061D"/>
<path d="M416.612 580.67L473.992 568.009C488.629 574.295 518.738 587.351 522.078 589.291C525.419 591.231 549.691 488.09 561.409 436.277L406.375 264.272L96.8458 0L147 184.5L0 162.442L125.132 346L37.1758 462.678L185 563.5L161.095 675.226L416.612 580.67Z" fill="#0B061D"/>
<path d="M431.429 632.528L471.299 566.123C471.928 556.066 473.32 535.412 473.858 533.257C474.397 531.102 476.418 517.723 477.36 511.302C481.177 503.984 488.809 488.916 488.809 487.192C488.809 485.468 502.997 471.836 510.091 465.236L569.627 430.754L591.986 428.33L606.937 430.754L666.472 367.178L543.63 326.231L623.37 282.5L595.757 205.41H694.354L648.827 79.335L761.028 137L798.069 68.1553L858.5 213.5L916.736 185.475L878.482 297.137L900.842 359.097L892.76 382.668L987.855 497.159L803.727 416.207L772.881 452.844L751.195 493.792L757.661 504.702C763.049 515.612 773.932 537.675 774.363 538.645C774.794 539.615 775.71 554.584 776.114 561.947L768.975 600.605L748.771 636.299L688.562 696.104L694.354 700.414L699.742 704.724C703.828 708.181 712.269 715.365 713.346 716.443C714.693 717.79 720.62 727.622 720.62 729.912V745.402L724.122 759.814L714.154 779.211L685.734 823.391L678.325 825.142L675.901 832.685L748.232 869.86H761.028C764.396 870.758 771.507 872.716 773.016 873.362C774.525 874.009 778.494 877.762 780.29 879.558L782.714 876.595L793.086 865.954L792.816 855.717L797.665 854.101L819.351 830.529L824.739 823.391L833.629 828.374L849.927 831.876H866.225C875.519 834.031 894.43 838.503 895.723 839.15C897.016 839.796 901.919 847.052 904.209 850.599L911.752 857.064C915.748 864.113 923.955 878.481 924.817 879.558C925.679 880.636 930.564 904.432 932.899 916.195L917.409 895.587L875.115 864.068L886.833 891.546L869.997 876.595L793.086 933.84L771.13 969.535L761.028 985.025L773.016 996.608L789.449 1002.13L810.596 998.629L787.024 1011.83H768.706L747.02 999.976L739.881 998.629L727.354 992.298L724.93 985.025L736.783 964.147V956.335L748.232 937.747L743.383 933.84L735.571 925.489C734.179 922.93 731.153 917.542 730.183 916.465C729.213 915.387 728.701 909.82 728.567 907.171L648.423 866.762L644.248 869.187L634.684 872.15L620.945 865.55C616.904 862.766 608.446 856.983 606.937 856.121C605.428 855.259 603.704 844.178 603.031 838.746C603.794 832.191 605.321 818.865 605.321 818.003C605.321 817.141 611.247 806.06 614.211 800.627L608.823 796.047C608.194 791.872 606.937 783.332 606.937 782.578C606.937 781.635 613.537 766.684 614.211 765.876C614.749 765.229 620.541 760.578 623.37 758.333L642.497 727.622L640.611 717.655L543.765 755.504L495.948 762.374L454.058 825.815L437.76 837.264V848.578L468.74 911.077V919.024L491.907 928.587L521.002 913.097V906.363L528.545 901.514L564.104 924.277V938.959L570.839 948.522L583.635 958.086L606.264 980.445L609.496 1019.1L593.198 1049L587.137 986.776L570.839 972.902L566.798 1003.21L549.288 980.445L491.907 1003.21L452.038 1051.83L450.017 1070.96C451.634 1074.15 455.109 1081.22 456.079 1084.03C457.048 1086.83 474.262 1095.07 482.748 1098.84L440.05 1093.59L418.229 1061.8L424.56 1035V1021.53L440.05 995.531C440.454 991.984 441.02 984.486 440.05 982.87C438.838 980.849 426.58 970.882 426.58 969.265V945.424L432.507 933.436L400.045 870.264L393.58 875.113L381.323 865.954L379.572 848.578L374.588 837.264L379.572 827.97L367.449 787.023C371.49 763.272 379.572 714.557 379.572 709.708C379.572 704.859 389.18 682.006 393.984 671.185L431.429 632.528Z" fill="#0B061D"/>
<path d="M802.647 353.44L796.855 320.035L838.072 357.346L836.321 370.276L827.431 377.011L802.647 366.236V353.44Z" fill="white"/>
</svg>
